{"asset":{"version":"2.0","generator":"Finni S7-002 procedural vertical-slice builder","extras":{"purpose":"minimal artistic vertical slice; not production-final"}},"scene":0,"scenes":[{"name":"FinniVerticalSlice","nodes":[0,15,16,17,18,19,20,21,22,23,24,25,26,27,28,29,30,31,32,33,34,43,44,45,46,47,50,51,52]}],"nodes":[{"name":"Joint.RigRoot","translation":[0.0,0.0,0.0],"extras":{"isJoint":true},"children":[1]},{"name":"Joint.Hips","translation":[0.0,0.52,0.0],"extras":{"isJoint":true},"children":[2,10,11,12]},{"name":"Joint.Spine","translation":[0.0,0.22,0.0],"extras":{"isJoint":true},"children":[3]},{"name":"Joint.Chest","translation":[0.0,0.22,0.0],"extras":{"isJoint":true},"children":[4,8,9]},{"name":"Joint.Neck","translation":[0.0,0.22,0.0],"extras":{"isJoint":true},"children":[5]},{"name":"Joint.Head","translation":[0.0,0.2,0.0],"extras":{"isJoint":true},"children":[6,7,35,36,37,40,41,42]},{"name":"Joint.Ear.L","translation":[-0.15,0.25,-0.01],"extras":{"isJoint":true}},{"name":"Joint.Ear.R","translation":[0.15,0.25,-0.01],"extras":{"isJoint":true}},{"name":"Joint.Arm.L","translation":[-0.3,0.0,0.0],"extras":{"isJoint":true}},{"name":"Joint.Arm.R","translation":[0.3,0.0,0.0],"extras":{"isJoint":true}},{"name":"Joint.Leg.L","translation":[-0.15,-0.28,0.0],"extras":{"isJoint":true}},{"name":"Joint.Leg.R","translation":[0.15,-0.28,0.0],"extras":{"isJoint":true}},{"name":"Joint.Tail.Base","translation":[0.27,0.02,-0.12],"extras":{"isJoint":true},"children":[13]},{"name":"Joint.Tail.Mid","translation":[0.26,0.18,-0.04],"extras":{"isJoint":true},"children":[14]},{"name":"Joint.Tail.Tip","translation":[0.2,0.22,0.05],"extras":{"isJoint":true}},{"name":"Body","mesh":0,"skin":0,"extras":{"boundJoint":"Joint.Spine"}},{"name":"Belly","mesh":1,"skin":0,"extras":{"boundJoint":"Joint.Spine"}},{"name":"HeadFur","mesh":2,"skin":0,"extras":{"boundJoint":"Joint.Head"}},{"name":"Cheek.L","mesh":3,"skin":0,"extras":{"boundJoint":"Joint.Head"}},{"name":"Cheek.R","mesh":4,"skin":0,"extras":{"boundJoint":"Joint.Head"}},{"name":"EarFur.L","mesh":5,"skin":0,"extras":{"boundJoint":"Joint.Ear.L"}},{"name":"EarFur.R","mesh":6,"skin":0,"extras":{"boundJoint":"Joint.Ear.R"}},{"name":"EarInner.L","mesh":7,"skin":0,"extras":{"boundJoint":"Joint.Ear.L"}},{"name":"EarInner.R","mesh":8,"skin":0,"extras":{"boundJoint":"Joint.Ear.R"}},{"name":"Arm.L","mesh":9,"skin":0,"extras":{"boundJoint":"Joint.Arm.L"}},{"name":"Arm.R","mesh":10,"skin":0,"extras":{"boundJoint":"Joint.Arm.R"}},{"name":"Paw.L","mesh":11,"skin":0,"extras":{"boundJoint":"Joint.Arm.L"}},{"name":"Paw.R","mesh":12,"skin":0,"extras":{"boundJoint":"Joint.Arm.R"}},{"name":"Leg.L","mesh":13,"skin":0,"extras":{"boundJoint":"Joint.Leg.L"}},{"name":"Leg.R","mesh":14,"skin":0,"extras":{"boundJoint":"Joint.Leg.R"}},{"name":"Foot.L","mesh":15,"skin":0,"extras":{"boundJoint":"Joint.Leg.L"}},{"name":"Foot.R","mesh":16,"skin":0,"extras":{"boundJoint":"Joint.Leg.R"}},{"name":"Tail.Base","mesh":17,"skin":0,"extras":{"boundJoint":"Joint.Tail.Base"}},{"name":"Tail.Mid","mesh":18,"skin":0,"extras":{"boundJoint":"Joint.Tail.Mid"}},{"name":"Tail.Tip","mesh":19,"skin":0,"extras":{"boundJoint":"Joint.Tail.Tip"}},{"name":"Muzzle","mesh":20,"translation":[0.0,-0.08,0.215],"scale":[0.18,0.1,0.06],"rotation":[0.0,0.0,0.0,1.0]},{"name":"Eye.L","mesh":21,"translation":[-0.105,0.02,0.218],"scale":[0.073,0.095,0.045],"rotation":[0.0,0.0,0.0,1.0],"extras":{"blinkTarget":true},"children":[38]},{"name":"Eye.R","mesh":22,"translation":[0.105,0.02,0.218],"scale":[0.073,0.095,0.045],"rotation":[0.0,0.0,0.0,1.0],"extras":{"blinkTarget":true},"children":[39]},{"name":"Highlight.L","mesh":23,"translation":[-0.018,0.025,0.042],"scale":[0.018,0.02,0.01],"rotation":[0.0,0.0,0.0,1.0]},{"name":"Highlight.R","mesh":24,"translation":[-0.018,0.025,0.042],"scale":[0.018,0.02,0.01],"rotation":[0.0,0.0,0.0,1.0]},{"name":"Nose","mesh":25,"translation":[0.0,-0.115,0.275],"scale":[0.055,0.035,0.038],"rotation":[0.0,0.0,0.0,1.0]},{"name":"Brow.L","mesh":26,"translation":[-0.105,0.115,0.225],"scale":[0.085,0.018,0.018],"rotation":[0.0,0.0,0.0697564737441253,0.9975640502598242]},{"name":"Brow.R","mesh":27,"translation":[0.105,0.115,0.225],"scale":[0.085,0.018,0.018],"rotation":[-0.0,-0.0,-0.0697564737441253,0.9975640502598242]},{"name":"Room.Floor","mesh":28,"translation":[0.0,-0.06,-0.25],"scale":[4.2,0.1,3.6],"rotation":[0.0,0.0,0.0,1.0],"extras":{"assetId":"ROOM-SLICE-FLOOR"}},{"name":"Room.BackWall","mesh":29,"translation":[0.0,1.4,-1.95],"scale":[4.2,2.9,0.1],"rotation":[0.0,0.0,0.0,1.0],"extras":{"assetId":"ROOM-SLICE-WALL"}},{"name":"Room.SideWall","mesh":30,"translation":[-2.05,1.4,-0.25],"scale":[0.1,2.9,3.6],"rotation":[0.0,0.0,0.0,1.0],"extras":{"assetId":"ROOM-SLICE-WALL"}},{"name":"Room.Rug","mesh":31,"translation":[0.0,0.005,0.12],"scale":[1.9,0.02,1.2],"rotation":[0.0,0.0,0.0,1.0],"extras":{"assetId":"ROOM-SLICE-RUG"}},{"name":"Chest","mesh":32,"translation":[-1.1,0.24,-0.6],"scale":[0.78,0.38,0.48],"rotation":[0.0,0.0,0.0,1.0],"extras":{"assetId":"OBJ-CHEST","separateObject":true},"children":[48,49]},{"name":"Chest.Lid","mesh":33,"translation":[0.0,0.52,0.0],"scale":[1.0,0.42,1.0],"rotation":[0.7071067811865476,0.0,0.0,0.7071067811865476],"extras":{"pivot":"rear-hinge"}},{"name":"Chest.Band","mesh":34,"translation":[0.0,0.06,0.505],"scale":[0.12,0.5,0.035],"rotation":[0.0,0.0,0.0,1.0]},{"name":"DiagnosticCamera","camera":0,"translation":[2.6,1.55,4.0],"rotation":[0.0,0.29237170472273677,0.0,0.9563047559630354]},{"name":"WarmKey","translation":[1.6,2.6,2.0],"extensions":{"KHR_lights_punctual":{"light":0}}},{"name":"SoftFill","rotation":[-0.3826834323650898,-0.0,-0.0,0.9238795325112867],"extensions":{"KHR_lights_punctual":{"light":1}}}],"meshes":[{"name":"Body","primitives":[{"attributes":{"POSITION":0,"NORMAL":1,"TEXCOORD_0":2,"JOINTS_0":3,"WEIGHTS_0":4},"indices":5,"material":0,"mode":4}]},{"name":"Belly","primitives":[{"attributes":{"POSITION":6,"NORMAL":7,"TEXCOORD_0":8,"JOINTS_0":9,"WEIGHTS_0":10},"indices":11,"material":1,"mode":4}]},{"name":"HeadFur","primitives":[{"attributes":{"POSITION":12,"NORMAL":13,"TEXCOORD_0":14,"JOINTS_0":15,"WEIGHTS_0":16},"indices":17,"material":0,"mode":4}]},{"name":"Cheek.L","primitives":[{"attributes":{"POSITION":18,"NORMAL":19,"TEXCOORD_0":20,"JOINTS_0":21,"WEIGHTS_0":22},"indices":23,"material":0,"mode":4}]},{"name":"Cheek.R","primitives":[{"attributes":{"POSITION":24,"NORMAL":25,"TEXCOORD_0":26,"JOINTS_0":27,"WEIGHTS_0":28},"indices":29,"material":0,"mode":4}]},{"name":"EarFur.L","primitives":[{"attributes":{"POSITION":30,"NORMAL":31,"TEXCOORD_0":32,"JOINTS_0":33,"WEIGHTS_0":34},"indices":35,"material":0,"mode":4}]},{"name":"EarFur.R","primitives":[{"attributes":{"POSITION":36,"NORMAL":37,"TEXCOORD_0":38,"JOINTS_0":39,"WEIGHTS_0":40},"indices":41,"material":0,"mode":4}]},{"name":"EarInner.L","primitives":[{"attributes":{"POSITION":42,"NORMAL":43,"TEXCOORD_0":44,"JOINTS_0":45,"WEIGHTS_0":46},"indices":47,"material":1,"mode":4}]},{"name":"EarInner.R","primitives":[{"attributes":{"POSITION":48,"NORMAL":49,"TEXCOORD_0":50,"JOINTS_0":51,"WEIGHTS_0":52},"indices":53,"material":1,"mode":4}]},{"name":"Arm.L","primitives":[{"attributes":{"POSITION":54,"NORMAL":55,"TEXCOORD_0":56,"JOINTS_0":57,"WEIGHTS_0":58},"indices":59,"material":0,"mode":4}]},{"name":"Arm.R","primitives":[{"attributes":{"POSITION":60,"NORMAL":61,"TEXCOORD_0":62,"JOINTS_0":63,"WEIGHTS_0":64},"indices":65,"material":0,"mode":4}]},{"name":"Paw.L","primitives":[{"attributes":{"POSITION":66,"NORMAL":67,"TEXCOORD_0":68,"JOINTS_0":69,"WEIGHTS_0":70},"indices":71,"material":1,"mode":4}]},{"name":"Paw.R","primitives":[{"attributes":{"POSITION":72,"NORMAL":73,"TEXCOORD_0":74,"JOINTS_0":75,"WEIGHTS_0":76},"indices":77,"material":1,"mode":4}]},{"name":"Leg.L","primitives":[{"attributes":{"POSITION":78,"NORMAL":79,"TEXCOORD_0":80,"JOINTS_0":81,"WEIGHTS_0":82},"indices":83,"material":0,"mode":4}]},{"name":"Leg.R","primitives":[{"attributes":{"POSITION":84,"NORMAL":85,"TEXCOORD_0":86,"JOINTS_0":87,"WEIGHTS_0":88},"indices":89,"material":0,"mode":4}]},{"name":"Foot.L","primitives":[{"attributes":{"POSITION":90,"NORMAL":91,"TEXCOORD_0":92,"JOINTS_0":93,"WEIGHTS_0":94},"indices":95,"material":1,"mode":4}]},{"name":"Foot.R","primitives":[{"attributes":{"POSITION":96,"NORMAL":97,"TEXCOORD_0":98,"JOINTS_0":99,"WEIGHTS_0":100},"indices":101,"material":1,"mode":4}]},{"name":"Tail.Base","primitives":[{"attributes":{"POSITION":102,"NORMAL":103,"TEXCOORD_0":104,"JOINTS_0":105,"WEIGHTS_0":106},"indices":107,"material":0,"mode":4}]},{"name":"Tail.Mid","primitives":[{"attributes":{"POSITION":108,"NORMAL":109,"TEXCOORD_0":110,"JOINTS_0":111,"WEIGHTS_0":112},"indices":113,"material":0,"mode":4}]},{"name":"Tail.Tip","primitives":[{"attributes":{"POSITION":114,"NORMAL":115,"TEXCOORD_0":116,"JOINTS_0":117,"WEIGHTS_0":118},"indices":119,"material":1,"mode":4}]},{"name":"Muzzle","primitives":[{"attributes":{"POSITION":120,"NORMAL":121,"TEXCOORD_0":122},"indices":123,"material":1,"mode":4}]},{"name":"Eye.L","primitives":[{"attributes":{"POSITION":124,"NORMAL":125,"TEXCOORD_0":126},"indices":127,"material":2,"mode":4}]},{"name":"Eye.R","primitives":[{"attributes":{"POSITION":128,"NORMAL":129,"TEXCOORD_0":130},"indices":131,"material":2,"mode":4}]},{"name":"Highlight.L","primitives":[{"attributes":{"POSITION":132,"NORMAL":133,"TEXCOORD_0":134},"indices":135,"material":3,"mode":4}]},{"name":"Highlight.R","primitives":[{"attributes":{"POSITION":136,"NORMAL":137,"TEXCOORD_0":138},"indices":139,"material":3,"mode":4}]},{"name":"Nose","primitives":[{"attributes":{"POSITION":140,"NORMAL":141,"TEXCOORD_0":142},"indices":143,"material":4,"mode":4}]},{"name":"Brow.L","primitives":[{"attributes":{"POSITION":144,"NORMAL":145,"TEXCOORD_0":146},"indices":147,"material":1,"mode":4}]},{"name":"Brow.R","primitives":[{"attributes":{"POSITION":148,"NORMAL":149,"TEXCOORD_0":150},"indices":151,"material":1,"mode":4}]},{"name":"Room.Floor","primitives":[{"attributes":{"POSITION":152,"NORMAL":153,"TEXCOORD_0":154},"indices":155,"material":6,"mode":4}]},{"name":"Room.BackWall","primitives":[{"attributes":{"POSITION":156,"NORMAL":157,"TEXCOORD_0":158},"indices":159,"material":7,"mode":4}]},{"name":"Room.SideWall","primitives":[{"attributes":{"POSITION":160,"NORMAL":161,"TEXCOORD_0":162},"indices":163,"material":7,"mode":4}]},{"name":"Room.Rug","primitives":[{"attributes":{"POSITION":164,"NORMAL":165,"TEXCOORD_0":166},"indices":167,"material":8,"mode":4}]},{"name":"Chest","primitives":[{"attributes":{"POSITION":168,"NORMAL":169,"TEXCOORD_0":170},"indices":171,"material":5,"mode":4}]},{"name":"Chest.Lid","primitives":[{"attributes":{"POSITION":172,"NORMAL":173,"TEXCOORD_0":174},"indices":175,"material":5,"mode":4}]},{"name":"Chest.Band","primitives":[{"attributes":{"POSITION":176,"NORMAL":177,"TEXCOORD_0":178},"indices":179,"material":9,"mode":4}]}],"materials":[{"name":"Fur Orange","pbrMetallicRoughness":{"baseColorFactor":[1,1,1,1],"metallicFactor":0.0,"roughnessFactor":0.88,"baseColorTexture":{"index":0}}},{"name":"Fur Cream","pbrMetallicRoughness":{"baseColorFactor":[1,1,1,1],"metallicFactor":0.0,"roughnessFactor":0.9,"baseColorTexture":{"index":1}}},{"name":"Eyes","pbrMetallicRoughness":{"baseColorFactor":[0.1,0.055,0.035,1],"metallicFactor":0.0,"roughnessFactor":0.2}},{"name":"Eye Highlight","pbrMetallicRoughness":{"baseColorFactor":[1,0.98,0.95,1],"metallicFactor":0.0,"roughnessFactor":0.18}},{"name":"Nose","pbrMetallicRoughness":{"baseColorFactor":[0.08,0.045,0.035,1],"metallicFactor":0.0,"roughnessFactor":0.35}},{"name":"Warm Wood","pbrMetallicRoughness":{"baseColorFactor":[1,1,1,1],"metallicFactor":0.0,"roughnessFactor":0.7,"baseColorTexture":{"index":2}}},{"name":"Floor","pbrMetallicRoughness":{"baseColorFactor":[1,1,1,1],"metallicFactor":0.0,"roughnessFactor":0.88,"baseColorTexture":{"index":3}}},{"name":"Wall","pbrMetallicRoughness":{"baseColorFactor":[1,1,1,1],"metallicFactor":0.0,"roughnessFactor":0.92,"baseColorTexture":{"index":4}}},{"name":"Rug","pbrMetallicRoughness":{"baseColorFactor":[1,1,1,1],"metallicFactor":0.0,"roughnessFactor":0.96,"baseColorTexture":{"index":5}}},{"name":"Chest Band","pbrMetallicRoughness":{"baseColorFactor":[0.22,0.2,0.18,1],"metallicFactor":0.55,"roughnessFactor":0.45}}],"buffers":[{"byteLength":337444,"uri":"Finni_S7-002.bin"}],"bufferViews":[{"buffer":0,"byteOffset":0,"byteLength":7704,"target":34962},{"buffer":0,"byteOffset":7704,"byteLength":7704,"target":34962},{"buffer":0,"byteOffset":15408,"byteLength":5136,"target":34962},{"buffer":0,"byteOffset":20544,"byteLength":5136,"target":34962},{"buffer":0,"byteOffset":25680,"byteLength":10272,"target":34962},{"buffer":0,"byteOffset":35952,"byteLength":15360,"target":34963},{"buffer":0,"byteOffset":51312,"byteLength":1944,"target":34962},{"buffer":0,"byteOffset":53256,"byteLength":1944,"target":34962},{"buffer":0,"byteOffset":55200,"byteLength":1296,"target":34962},{"buffer":0,"byteOffset":56496,"byteLength":1296,"target":34962},{"buffer":0,"byteOffset":57792,"byteLength":2592,"target":34962},{"buffer":0,"byteOffset":60384,"byteLength":3840,"target":34963},{"buffer":0,"byteOffset":64224,"byteLength":7704,"target":34962},{"buffer":0,"byteOffset":71928,"byteLength":7704,"target":34962},{"buffer":0,"byteOffset":79632,"byteLength":5136,"target":34962},{"buffer":0,"byteOffset":84768,"byteLength":5136,"target":34962},{"buffer":0,"byteOffset":89904,"byteLength":10272,"target":34962},{"buffer":0,"byteOffset":100176,"byteLength":15360,"target":34963},{"buffer":0,"byteOffset":115536,"byteLength":1944,"target":34962},{"buffer":0,"byteOffset":117480,"byteLength":1944,"target":34962},{"buffer":0,"byteOffset":119424,"byteLength":1296,"target":34962},{"buffer":0,"byteOffset":120720,"byteLength":1296,"target":34962},{"buffer":0,"byteOffset":122016,"byteLength":2592,"target":34962},{"buffer":0,"byteOffset":124608,"byteLength":3840,"target":34963},{"buffer":0,"byteOffset":128448,"byteLength":1944,"target":34962},{"buffer":0,"byteOffset":130392,"byteLength":1944,"target":34962},{"buffer":0,"byteOffset":132336,"byteLength":1296,"target":34962},{"buffer":0,"byteOffset":133632,"byteLength":1296,"target":34962},{"buffer":0,"byteOffset":134928,"byteLength":2592,"target":34962},{"buffer":0,"byteOffset":137520,"byteLength":3840,"target":34963},{"buffer":0,"byteOffset":141360,"byteLength":72,"target":34962},{"buffer":0,"byteOffset":141432,"byteLength":72,"target":34962},{"buffer":0,"byteOffset":141504,"byteLength":48,"target":34962},{"buffer":0,"byteOffset":141552,"byteLength":48,"target":34962},{"buffer":0,"byteOffset":141600,"byteLength":96,"target":34962},{"buffer":0,"byteOffset":141696,"byteLength":96,"target":34963},{"buffer":0,"byteOffset":141792,"byteLength":72,"target":34962},{"buffer":0,"byteOffset":141864,"byteLength":72,"target":34962},{"buffer":0,"byteOffset":141936,"byteLength":48,"target":34962},{"buffer":0,"byteOffset":141984,"byteLength":48,"target":34962},{"buffer":0,"byteOffset":142032,"byteLength":96,"target":34962},{"buffer":0,"byteOffset":142128,"byteLength":96,"target":34963},{"buffer":0,"byteOffset":142224,"byteLength":72,"target":34962},{"buffer":0,"byteOffset":142296,"byteLength":72,"target":34962},{"buffer":0,"byteOffset":142368,"byteLength":48,"target":34962},{"buffer":0,"byteOffset":142416,"byteLength":48,"target":34962},{"buffer":0,"byteOffset":142464,"byteLength":96,"target":34962},{"buffer":0,"byteOffset":142560,"byteLength":96,"target":34963},{"buffer":0,"byteOffset":142656,"byteLength":72,"target":34962},{"buffer":0,"byteOffset":142728,"byteLength":72,"target":34962},{"buffer":0,"byteOffset":142800,"byteLength":48,"target":34962},{"buffer":0,"byteOffset":142848,"byteLength":48,"target":34962},{"buffer":0,"byteOffset":142896,"byteLength":96,"target":34962},{"buffer":0,"byteOffset":142992,"byteLength":96,"target":34963},{"buffer":0,"byteOffset":143088,"byteLength":1944,"target":34962},{"buffer":0,"byteOffset":145032,"byteLength":1944,"target":34962},{"buffer":0,"byteOffset":146976,"byteLength":1296,"target":34962},{"buffer":0,"byteOffset":148272,"byteLength":1296,"target":34962},{"buffer":0,"byteOffset":149568,"byteLength":2592,"target":34962},{"buffer":0,"byteOffset":152160,"byteLength":3840,"target":34963},{"buffer":0,"byteOffset":156000,"byteLength":1944,"target":34962},{"buffer":0,"byteOffset":157944,"byteLength":1944,"target":34962},{"buffer":0,"byteOffset":159888,"byteLength":1296,"target":34962},{"buffer":0,"byteOffset":161184,"byteLength":1296,"target":34962},{"buffer":0,"byteOffset":162480,"byteLength":2592,"target":34962},{"buffer":0,"byteOffset":165072,"byteLength":3840,"target":34963},{"buffer":0,"byteOffset":168912,"byteLength":1944,"target":34962},{"buffer":0,"byteOffset":170856,"byteLength":1944,"target":34962},{"buffer":0,"byteOffset":172800,"byteLength":1296,"target":34962},{"buffer":0,"byteOffset":174096,"byteLength":1296,"target":34962},{"buffer":0,"byteOffset":175392,"byteLength":2592,"target":34962},{"buffer":0,"byteOffset":177984,"byteLength":3840,"target":34963},{"buffer":0,"byteOffset":181824,"byteLength":1944,"target":34962},{"buffer":0,"byteOffset":183768,"byteLength":1944,"target":34962},{"buffer":0,"byteOffset":185712,"byteLength":1296,"target":34962},{"buffer":0,"byteOffset":187008,"byteLength":1296,"target":34962},{"buffer":0,"byteOffset":188304,"byteLength":2592,"target":34962},{"buffer":0,"byteOffset":190896,"byteLength":3840,"target":34963},{"buffer":0,"byteOffset":194736,"byteLength":1944,"target":34962},{"buffer":0,"byteOffset":196680,"byteLength":1944,"target":34962},{"buffer":0,"byteOffset":198624,"byteLength":1296,"target":34962},{"buffer":0,"byteOffset":199920,"byteLength":1296,"target":34962},{"buffer":0,"byteOffset":201216,"byteLength":2592,"target":34962},{"buffer":0,"byteOffset":203808,"byteLength":3840,"target":34963},{"buffer":0,"byteOffset":207648,"byteLength":1944,"target":34962},{"buffer":0,"byteOffset":209592,"byteLength":1944,"target":34962},{"buffer":0,"byteOffset":211536,"byteLength":1296,"target":34962},{"buffer":0,"byteOffset":212832,"byteLength":1296,"target":34962},{"buffer":0,"byteOffset":214128,"byteLength":2592,"target":34962},{"buffer":0,"byteOffset":216720,"byteLength":3840,"target":34963},{"buffer":0,"byteOffset":220560,"byteLength":1944,"target":34962},{"buffer":0,"byteOffset":222504,"byteLength":1944,"target":34962},{"buffer":0,"byteOffset":224448,"byteLength":1296,"target":34962},{"buffer":0,"byteOffset":225744,"byteLength":1296,"target":34962},{"buffer":0,"byteOffset":227040,"byteLength":2592,"target":34962},{"buffer":0,"byteOffset":229632,"byteLength":3840,"target":34963},{"buffer":0,"byteOffset":233472,"byteLength":1944,"target":34962},{"buffer":0,"byteOffset":235416,"byteLength":1944,"target":34962},{"buffer":0,"byteOffset":237360,"byteLength":1296,"target":34962},{"buffer":0,"byteOffset":238656,"byteLength":1296,"target":34962},{"buffer":0,"byteOffset":239952,"byteLength":2592,"target":34962},{"buffer":0,"byteOffset":242544,"byteLength":3840,"target":34963},{"buffer":0,"byteOffset":246384,"byteLength":1944,"target":34962},{"buffer":0,"byteOffset":248328,"byteLength":1944,"target":34962},{"buffer":0,"byteOffset":250272,"byteLength":1296,"target":34962},{"buffer":0,"byteOffset":251568,"byteLength":1296,"target":34962},{"buffer":0,"byteOffset":252864,"byteLength":2592,"target":34962},{"buffer":0,"byteOffset":255456,"byteLength":3840,"target":34963},{"buffer":0,"byteOffset":259296,"byteLength":1944,"target":34962},{"buffer":0,"byteOffset":261240,"byteLength":1944,"target":34962},{"buffer":0,"byteOffset":263184,"byteLength":1296,"target":34962},{"buffer":0,"byteOffset":264480,"byteLength":1296,"target":34962},{"buffer":0,"byteOffset":265776,"byteLength":2592,"target":34962},{"buffer":0,"byteOffset":268368,"byteLength":3840,"target":34963},{"buffer":0,"byteOffset":272208,"byteLength":1944,"target":34962},{"buffer":0,"byteOffset":274152,"byteLength":1944,"target":34962},{"buffer":0,"byteOffset":276096,"byteLength":1296,"target":34962},{"buffer":0,"byteOffset":277392,"byteLength":1296,"target":34962},{"buffer":0,"byteOffset":278688,"byteLength":2592,"target":34962},{"buffer":0,"byteOffset":281280,"byteLength":3840,"target":34963},{"buffer":0,"byteOffset":285120,"byteLength":1944,"target":34962},{"buffer":0,"byteOffset":287064,"byteLength":1944,"target":34962},{"buffer":0,"byteOffset":289008,"byteLength":1296,"target":34962},{"buffer":0,"byteOffset":290304,"byteLength":3840,"target":34963},{"buffer":0,"byteOffset":294144,"byteLength":1944,"target":34962},{"buffer":0,"byteOffset":296088,"byteLength":1944,"target":34962},{"buffer":0,"byteOffset":298032,"byteLength":1296,"target":34962},{"buffer":0,"byteOffset":299328,"byteLength":3840,"target":34963},{"buffer":0,"byteOffset":303168,"byteLength":1944,"target":34962},{"buffer":0,"byteOffset":305112,"byteLength":1944,"target":34962},{"buffer":0,"byteOffset":307056,"byteLength":1296,"target":34962},{"buffer":0,"byteOffset":308352,"byteLength":3840,"target":34963},{"buffer":0,"byteOffset":312192,"byteLength":504,"target":34962},{"buffer":0,"byteOffset":312696,"byteLength":504,"target":34962},{"buffer":0,"byteOffset":313200,"byteLength":336,"target":34962},{"buffer":0,"byteOffset":313536,"byteLength":960,"target":34963},{"buffer":0,"byteOffset":314496,"byteLength":504,"target":34962},{"buffer":0,"byteOffset":315000,"byteLength":504,"target":34962},{"buffer":0,"byteOffset":315504,"byteLength":336,"target":34962},{"buffer":0,"byteOffset":315840,"byteLength":960,"target":34963},{"buffer":0,"byteOffset":316800,"byteLength":1944,"target":34962},{"buffer":0,"byteOffset":318744,"byteLength":1944,"target":34962},{"buffer":0,"byteOffset":320688,"byteLength":1296,"target":34962},{"buffer":0,"byteOffset":321984,"byteLength":3840,"target":34963},{"buffer":0,"byteOffset":325824,"byteLength":504,"target":34962},{"buffer":0,"byteOffset":326328,"byteLength":504,"target":34962},{"buffer":0,"byteOffset":326832,"byteLength":336,"target":34962},{"buffer":0,"byteOffset":327168,"byteLength":960,"target":34963},{"buffer":0,"byteOffset":328128,"byteLength":504,"target":34962},{"buffer":0,"byteOffset":328632,"byteLength":504,"target":34962},{"buffer":0,"byteOffset":329136,"byteLength":336,"target":34962},{"buffer":0,"byteOffset":329472,"byteLength":960,"target":34963},{"buffer":0,"byteOffset":330432,"byteLength":96,"target":34962},{"buffer":0,"byteOffset":330528,"byteLength":96,"target":34962},{"buffer":0,"byteOffset":330624,"byteLength":64,"target":34962},{"buffer":0,"byteOffset":330688,"byteLength":144,"target":34963},{"buffer":0,"byteOffset":330832,"byteLength":96,"target":34962},{"buffer":0,"byteOffset":330928,"byteLength":96,"target":34962},{"buffer":0,"byteOffset":331024,"byteLength":64,"target":34962},{"buffer":0,"byteOffset":331088,"byteLength":144,"target":34963},{"buffer":0,"byteOffset":331232,"byteLength":96,"target":34962},{"buffer":0,"byteOffset":331328,"byteLength":96,"target":34962},{"buffer":0,"byteOffset":331424,"byteLength":64,"target":34962},{"buffer":0,"byteOffset":331488,"byteLength":144,"target":34963},{"buffer":0,"byteOffset":331632,"byteLength":96,"target":34962},{"buffer":0,"byteOffset":331728,"byteLength":96,"target":34962},{"buffer":0,"byteOffset":331824,"byteLength":64,"target":34962},{"buffer":0,"byteOffset":331888,"byteLength":144,"target":34963},{"buffer":0,"byteOffset":332032,"byteLength":96,"target":34962},{"buffer":0,"byteOffset":332128,"byteLength":96,"target":34962},{"buffer":0,"byteOffset":332224,"byteLength":64,"target":34962},{"buffer":0,"byteOffset":332288,"byteLength":144,"target":34963},{"buffer":0,"byteOffset":332432,"byteLength":504,"target":34962},{"buffer":0,"byteOffset":332936,"byteLength":504,"target":34962},{"buffer":0,"byteOffset":333440,"byteLength":336,"target":34962},{"buffer":0,"byteOffset":333776,"byteLength":960,"target":34963},{"buffer":0,"byteOffset":334736,"byteLength":96,"target":34962},{"buffer":0,"byteOffset":334832,"byteLength":96,"target":34962},{"buffer":0,"byteOffset":334928,"byteLength":64,"target":34962},{"buffer":0,"byteOffset":334992,"byteLength":144,"target":34963},{"buffer":0,"byteOffset":335136,"byteLength":960},{"buffer":0,"byteOffset":336096,"byteLength":20},{"buffer":0,"byteOffset":336116,"byteLength":60},{"buffer":0,"byteOffset":336176,"byteLength":20},{"buffer":0,"byteOffset":336196,"byteLength":80},{"buffer":0,"byteOffset":336276,"byteLength":20},{"buffer":0,"byteOffset":336296,"byteLength":80},{"buffer":0,"byteOffset":336376,"byteLength":20},{"buffer":0,"byteOffset":336396,"byteLength":80},{"buffer":0,"byteOffset":336476,"byteLength":12},{"buffer":0,"byteOffset":336488,"byteLength":48},{"buffer":0,"byteOffset":336536,"byteLength":16},{"buffer":0,"byteOffset":336552,"byteLength":48},{"buffer":0,"byteOffset":336600,"byteLength":16},{"buffer":0,"byteOffset":336616,"byteLength":48},{"buffer":0,"byteOffset":336664,"byteLength":16},{"buffer":0,"byteOffset":336680,"byteLength":64},{"buffer":0,"byteOffset":336744,"byteLength":16},{"buffer":0,"byteOffset":336760,"byteLength":64},{"buffer":0,"byteOffset":336824,"byteLength":16},{"buffer":0,"byteOffset":336840,"byteLength":64},{"buffer":0,"byteOffset":336904,"byteLength":16},{"buffer":0,"byteOffset":336920,"byteLength":64},{"buffer":0,"byteOffset":336984,"byteLength":20},{"buffer":0,"byteOffset":337004,"byteLength":60},{"buffer":0,"byteOffset":337064,"byteLength":16},{"buffer":0,"byteOffset":337080,"byteLength":64},{"buffer":0,"byteOffset":337144,"byteLength":16},{"buffer":0,"byteOffset":337160,"byteLength":64},{"buffer":0,"byteOffset":337224,"byteLength":28},{"buffer":0,"byteOffset":337252,"byteLength":112},{"buffer":0,"byteOffset":337364,"byteLength":16},{"buffer":0,"byteOffset":337380,"byteLength":64}],"accessors":[{"bufferView":0,"componentType":5126,"count":642,"type":"VEC3","min":[-0.3100000023841858,0.4300000071525574,-0.23999999463558197],"max":[0.3100000023841858,1.2100000381469727,0.23999999463558197]},{"bufferView":1,"componentType":5126,"count":642,"type":"VEC3"},{"bufferView":2,"componentType":5126,"count":642,"type":"VEC2"},{"bufferView":3,"componentType":5123,"count":642,"type":"VEC4"},{"bufferView":4,"componentType":5126,"count":642,"type":"VEC4"},{"bufferView":5,"componentType":5125,"count":3840,"type":"SCALAR"},{"bufferView":6,"componentType":5126,"count":162,"type":"VEC3","min":[-0.20000000298023224,0.550000011920929,0.17000000178813934],"max":[0.20000000298023224,1.0499999523162842,0.23999999463558197]},{"bufferView":7,"componentType":5126,"count":162,"type":"VEC3"},{"bufferView":8,"componentType":5126,"count":162,"type":"VEC2"},{"bufferView":9,"componentType":5123,"count":162,"type":"VEC4"},{"bufferView":10,"componentType":5126,"count":162,"type":"VEC4"},{"bufferView":11,"componentType":5125,"count":960,"type":"SCALAR"},{"bufferView":12,"componentType":5126,"count":642,"type":"VEC3","min":[-0.28999999165534973,1.0399999618530273,-0.23999999463558197],"max":[0.28999999165534973,1.5800000429153442,0.23999999463558197]},{"bufferView":13,"componentType":5126,"count":642,"type":"VEC3"},{"bufferView":14,"componentType":5126,"count":642,"type":"VEC2"},{"bufferView":15,"componentType":5123,"count":642,"type":"VEC4"},{"bufferView":16,"componentType":5126,"count":642,"type":"VEC4"},{"bufferView":17,"componentType":5125,"count":3840,"type":"SCALAR"},{"bufferView":18,"componentType":5126,"count":162,"type":"VEC3","min":[-0.3199999928474426,1.149999976158142,0.0],"max":[-0.11999999731779099,1.350000023841858,0.20000000298023224]},{"bufferView":19,"componentType":5126,"count":162,"type":"VEC3"},{"bufferView":20,"componentType":5126,"count":162,"type":"VEC2"},{"bufferView":21,"componentType":5123,"count":162,"type":"VEC4"},{"bufferView":22,"componentType":5126,"count":162,"type":"VEC4"},{"bufferView":23,"componentType":5125,"count":960,"type":"SCALAR"},{"bufferView":24,"componentType":5126,"count":162,"type":"VEC3","min":[0.11999999731779099,1.149999976158142,0.0],"max":[0.3199999928474426,1.350000023841858,0.20000000298023224]},{"bufferView":25,"componentType":5126,"count":162,"type":"VEC3"},{"bufferView":26,"componentType":5126,"count":162,"type":"VEC2"},{"bufferView":27,"componentType":5123,"count":162,"type":"VEC4"},{"bufferView":28,"componentType":5126,"count":162,"type":"VEC4"},{"bufferView":29,"componentType":5125,"count":960,"type":"SCALAR"},{"bufferView":30,"componentType":5126,"count":6,"type":"VEC3","min":[-0.2889564633369446,1.649999976158142,-0.21843469142913818],"max":[-0.011043538339436054,1.850000023841858,0.19843469560146332]},{"bufferView":31,"componentType":5126,"count":6,"type":"VEC3"},{"bufferView":32,"componentType":5126,"count":6,"type":"VEC2"},{"bufferView":33,"componentType":5123,"count":6,"type":"VEC4"},{"bufferView":34,"componentType":5126,"count":6,"type":"VEC4"},{"bufferView":35,"componentType":5125,"count":24,"type":"SCALAR"},{"bufferView":36,"componentType":5126,"count":6,"type":"VEC3","min":[0.011043538339436054,1.649999976158142,-0.21843469142913818],"max":[0.2889564633369446,1.850000023841858,0.19843469560146332]},{"bufferView":37,"componentType":5126,"count":6,"type":"VEC3"},{"bufferView":38,"componentType":5126,"count":6,"type":"VEC2"},{"bufferView":39,"componentType":5123,"count":6,"type":"VEC4"},{"bufferView":40,"componentType":5126,"count":6,"type":"VEC4"},{"bufferView":41,"componentType":5125,"count":24,"type":"SCALAR"},{"bufferView":42,"componentType":5126,"count":6,"type":"VEC3","min":[-0.22444096207618713,1.6449999809265137,-0.07410553842782974],"max":[-0.07555903494358063,1.6890000104904175,0.16410553455352783]},{"bufferView":43,"componentType":5126,"count":6,"type":"VEC3"},{"bufferView":44,"componentType":5126,"count":6,"type":"VEC2"},{"bufferView":45,"componentType":5123,"count":6,"type":"VEC4"},{"bufferView":46,"componentType":5126,"count":6,"type":"VEC4"},{"bufferView":47,"componentType":5125,"count":24,"type":"SCALAR"},{"bufferView":48,"componentType":5126,"count":6,"type":"VEC3","min":[0.07555903494358063,1.6449999809265137,-0.07410553842782974],"max":[0.22444096207618713,1.6890000104904175,0.16410553455352783]},{"bufferView":49,"componentType":5126,"count":6,"type":"VEC3"},{"bufferView":50,"componentType":5126,"count":6,"type":"VEC2"},{"bufferView":51,"componentType":5123,"count":6,"type":"VEC4"},{"bufferView":52,"componentType":5126,"count":6,"type":"VEC4"},{"bufferView":53,"componentType":5125,"count":24,"type":"SCALAR"},{"bufferView":54,"componentType":5126,"count":162,"type":"VEC3","min":[-0.41999998688697815,0.5400000214576721,-0.07999999821186066],"max":[-0.20000000298023224,1.0399999618530273,0.14000000059604645]},{"bufferView":55,"componentType":5126,"count":162,"type":"VEC3"},{"bufferView":56,"componentType":5126,"count":162,"type":"VEC2"},{"bufferView":57,"componentType":5123,"count":162,"type":"VEC4"},{"bufferView":58,"componentType":5126,"count":162,"type":"VEC4"},{"bufferView":59,"componentType":5125,"count":960,"type":"SCALAR"},{"bufferView":60,"componentType":5126,"count":162,"type":"VEC3","min":[0.20000000298023224,0.5400000214576721,-0.07999999821186066],"max":[0.41999998688697815,1.0399999618530273,0.14000000059604645]},{"bufferView":61,"componentType":5126,"count":162,"type":"VEC3"},{"bufferView":62,"componentType":5126,"count":162,"type":"VEC2"},{"bufferView":63,"componentType":5123,"count":162,"type":"VEC4"},{"bufferView":64,"componentType":5126,"count":162,"type":"VEC4"},{"bufferView":65,"componentType":5125,"count":960,"type":"SCALAR"},{"bufferView":66,"componentType":5126,"count":162,"type":"VEC3","min":[-0.41999998688697815,0.47999998927116394,-0.019999999552965164],"max":[-0.20000000298023224,0.6800000071525574,0.18000000715255737]},{"bufferView":67,"componentType":5126,"count":162,"type":"VEC3"},{"bufferView":68,"componentType":5126,"count":162,"type":"VEC2"},{"bufferView":69,"componentType":5123,"count":162,"type":"VEC4"},{"bufferView":70,"componentType":5126,"count":162,"type":"VEC4"},{"bufferView":71,"componentType":5125,"count":960,"type":"SCALAR"},{"bufferView":72,"componentType":5126,"count":162,"type":"VEC3","min":[0.20000000298023224,0.47999998927116394,-0.019999999552965164],"max":[0.41999998688697815,0.6800000071525574,0.18000000715255737]},{"bufferView":73,"componentType":5126,"count":162,"type":"VEC3"},{"bufferView":74,"componentType":5126,"count":162,"type":"VEC2"},{"bufferView":75,"componentType":5123,"count":162,"type":"VEC4"},{"bufferView":76,"componentType":5126,"count":162,"type":"VEC4"},{"bufferView":77,"componentType":5125,"count":960,"type":"SCALAR"},{"bufferView":78,"componentType":5126,"count":162,"type":"VEC3","min":[-0.28999999165534973,0.07000000029802322,-0.14000000059604645],"max":[-0.009999999776482582,0.5699999928474426,0.14000000059604645]},{"bufferView":79,"componentType":5126,"count":162,"type":"VEC3"},{"bufferView":80,"componentType":5126,"count":162,"type":"VEC2"},{"bufferView":81,"componentType":5123,"count":162,"type":"VEC4"},{"bufferView":82,"componentType":5126,"count":162,"type":"VEC4"},{"bufferView":83,"componentType":5125,"count":960,"type":"SCALAR"},{"bufferView":84,"componentType":5126,"count":162,"type":"VEC3","min":[0.009999999776482582,0.07000000029802322,-0.14000000059604645],"max":[0.28999999165534973,0.5699999928474426,0.14000000059604645]},{"bufferView":85,"componentType":5126,"count":162,"type":"VEC3"},{"bufferView":86,"componentType":5126,"count":162,"type":"VEC2"},{"bufferView":87,"componentType":5123,"count":162,"type":"VEC4"},{"bufferView":88,"componentType":5126,"count":162,"type":"VEC4"},{"bufferView":89,"componentType":5125,"count":960,"type":"SCALAR"},{"bufferView":90,"componentType":5126,"count":162,"type":"VEC3","min":[-0.3199999928474426,0.0,-0.10000000149011612],"max":[0.0,0.20000000298023224,0.30000001192092896]},{"bufferView":91,"componentType":5126,"count":162,"type":"VEC3"},{"bufferView":92,"componentType":5126,"count":162,"type":"VEC2"},{"bufferView":93,"componentType":5123,"count":162,"type":"VEC4"},{"bufferView":94,"componentType":5126,"count":162,"type":"VEC4"},{"bufferView":95,"componentType":5125,"count":960,"type":"SCALAR"},{"bufferView":96,"componentType":5126,"count":162,"type":"VEC3","min":[0.0,0.0,-0.10000000149011612],"max":[0.3199999928474426,0.20000000298023224,0.30000001192092896]},{"bufferView":97,"componentType":5126,"count":162,"type":"VEC3"},{"bufferView":98,"componentType":5126,"count":162,"type":"VEC2"},{"bufferView":99,"componentType":5123,"count":162,"type":"VEC4"},{"bufferView":100,"componentType":5126,"count":162,"type":"VEC4"},{"bufferView":101,"componentType":5125,"count":960,"type":"SCALAR"},{"bufferView":102,"componentType":5126,"count":162,"type":"VEC3","min":[0.18000000715255737,0.3499999940395355,-0.25999999046325684],"max":[0.5400000214576721,0.8500000238418579,0.05999999865889549]},{"bufferView":103,"componentType":5126,"count":162,"type":"VEC3"},{"bufferView":104,"componentType":5126,"count":162,"type":"VEC2"},{"bufferView":105,"componentType":5123,"count":162,"type":"VEC4"},{"bufferView":106,"componentType":5126,"count":162,"type":"VEC4"},{"bufferView":107,"componentType":5125,"count":960,"type":"SCALAR"},{"bufferView":108,"componentType":5126,"count":162,"type":"VEC3","min":[0.36000001430511475,0.5299999713897705,-0.25],"max":[0.7200000286102295,1.0700000524520874,0.09000000357627869]},{"bufferView":109,"componentType":5126,"count":162,"type":"VEC3"},{"bufferView":110,"componentType":5126,"count":162,"type":"VEC2"},{"bufferView":111,"componentType":5123,"count":162,"type":"VEC4"},{"bufferView":112,"componentType":5126,"count":162,"type":"VEC4"},{"bufferView":113,"componentType":5125,"count":960,"type":"SCALAR"},{"bufferView":114,"componentType":5126,"count":162,"type":"VEC3","min":[0.44999998807907104,0.7699999809265137,-0.14000000059604645],"max":[0.7699999809265137,1.2300000190734863,0.1599999964237213]},{"bufferView":115,"componentType":5126,"count":162,"type":"VEC3"},{"bufferView":116,"componentType":5126,"count":162,"type":"VEC2"},{"bufferView":117,"componentType":5123,"count":162,"type":"VEC4"},{"bufferView":118,"componentType":5126,"count":162,"type":"VEC4"},{"bufferView":119,"componentType":5125,"count":960,"type":"SCALAR"},{"bufferView":120,"componentType":5126,"count":162,"type":"VEC3","min":[-1.0,-1.0,-1.0],"max":[1.0,1.0,1.0]},{"bufferView":121,"componentType":5126,"count":162,"type":"VEC3"},{"bufferView":122,"componentType":5126,"count":162,"type":"VEC2"},{"bufferView":123,"componentType":5125,"count":960,"type":"SCALAR"},{"bufferView":124,"componentType":5126,"count":162,"type":"VEC3","min":[-1.0,-1.0,-1.0],"max":[1.0,1.0,1.0]},{"bufferView":125,"componentType":5126,"count":162,"type":"VEC3"},{"bufferView":126,"componentType":5126,"count":162,"type":"VEC2"},{"bufferView":127,"componentType":5125,"count":960,"type":"SCALAR"},{"bufferView":128,"componentType":5126,"count":162,"type":"VEC3","min":[-1.0,-1.0,-1.0],"max":[1.0,1.0,1.0]},{"bufferView":129,"componentType":5126,"count":162,"type":"VEC3"},{"bufferView":130,"componentType":5126,"count":162,"type":"VEC2"},{"bufferView":131,"componentType":5125,"count":960,"type":"SCALAR"},{"bufferView":132,"componentType":5126,"count":42,"type":"VEC3","min":[-1.0,-1.0,-1.0],"max":[1.0,1.0,1.0]},{"bufferView":133,"componentType":5126,"count":42,"type":"VEC3"},{"bufferView":134,"componentType":5126,"count":42,"type":"VEC2"},{"bufferView":135,"componentType":5125,"count":240,"type":"SCALAR"},{"bufferView":136,"componentType":5126,"count":42,"type":"VEC3","min":[-1.0,-1.0,-1.0],"max":[1.0,1.0,1.0]},{"bufferView":137,"componentType":5126,"count":42,"type":"VEC3"},{"bufferView":138,"componentType":5126,"count":42,"type":"VEC2"},{"bufferView":139,"componentType":5125,"count":240,"type":"SCALAR"},{"bufferView":140,"componentType":5126,"count":162,"type":"VEC3","min":[-1.0,-1.0,-1.0],"max":[1.0,1.0,1.0]},{"bufferView":141,"componentType":5126,"count":162,"type":"VEC3"},{"bufferView":142,"componentType":5126,"count":162,"type":"VEC2"},{"bufferView":143,"componentType":5125,"count":960,"type":"SCALAR"},{"bufferView":144,"componentType":5126,"count":42,"type":"VEC3","min":[-1.0,-1.0,-1.0],"max":[1.0,1.0,1.0]},{"bufferView":145,"componentType":5126,"count":42,"type":"VEC3"},{"bufferView":146,"componentType":5126,"count":42,"type":"VEC2"},{"bufferView":147,"componentType":5125,"count":240,"type":"SCALAR"},{"bufferView":148,"componentType":5126,"count":42,"type":"VEC3","min":[-1.0,-1.0,-1.0],"max":[1.0,1.0,1.0]},{"bufferView":149,"componentType":5126,"count":42,"type":"VEC3"},{"bufferView":150,"componentType":5126,"count":42,"type":"VEC2"},{"bufferView":151,"componentType":5125,"count":240,"type":"SCALAR"},{"bufferView":152,"componentType":5126,"count":8,"type":"VEC3","min":[-0.5,-0.5,-0.5],"max":[0.5,0.5,0.5]},{"bufferView":153,"componentType":5126,"count":8,"type":"VEC3"},{"bufferView":154,"componentType":5126,"count":8,"type":"VEC2"},{"bufferView":155,"componentType":5125,"count":36,"type":"SCALAR"},{"bufferView":156,"componentType":5126,"count":8,"type":"VEC3","min":[-0.5,-0.5,-0.5],"max":[0.5,0.5,0.5]},{"bufferView":157,"componentType":5126,"count":8,"type":"VEC3"},{"bufferView":158,"componentType":5126,"count":8,"type":"VEC2"},{"bufferView":159,"componentType":5125,"count":36,"type":"SCALAR"},{"bufferView":160,"componentType":5126,"count":8,"type":"VEC3","min":[-0.5,-0.5,-0.5],"max":[0.5,0.5,0.5]},{"bufferView":161,"componentType":5126,"count":8,"type":"VEC3"},{"bufferView":162,"componentType":5126,"count":8,"type":"VEC2"},{"bufferView":163,"componentType":5125,"count":36,"type":"SCALAR"},{"bufferView":164,"componentType":5126,"count":8,"type":"VEC3","min":[-0.5,-0.5,-0.5],"max":[0.5,0.5,0.5]},{"bufferView":165,"componentType":5126,"count":8,"type":"VEC3"},{"bufferView":166,"componentType":5126,"count":8,"type":"VEC2"},{"bufferView":167,"componentType":5125,"count":36,"type":"SCALAR"},{"bufferView":168,"componentType":5126,"count":8,"type":"VEC3","min":[-0.5,-0.5,-0.5],"max":[0.5,0.5,0.5]},{"bufferView":169,"componentType":5126,"count":8,"type":"VEC3"},{"bufferView":170,"componentType":5126,"count":8,"type":"VEC2"},{"bufferView":171,"componentType":5125,"count":36,"type":"SCALAR"},{"bufferView":172,"componentType":5126,"count":42,"type":"VEC3","min":[-0.5,-0.5,-0.5],"max":[0.5,0.5,0.5]},{"bufferView":173,"componentType":5126,"count":42,"type":"VEC3"},{"bufferView":174,"componentType":5126,"count":42,"type":"VEC2"},{"bufferView":175,"componentType":5125,"count":240,"type":"SCALAR"},{"bufferView":176,"componentType":5126,"count":8,"type":"VEC3","min":[-0.5,-0.5,-0.5],"max":[0.5,0.5,0.5]},{"bufferView":177,"componentType":5126,"count":8,"type":"VEC3"},{"bufferView":178,"componentType":5126,"count":8,"type":"VEC2"},{"bufferView":179,"componentType":5125,"count":36,"type":"SCALAR"},{"bufferView":180,"componentType":5126,"count":15,"type":"MAT4"},{"bufferView":181,"componentType":5126,"count":5,"type":"SCALAR","min":[0.0],"max":[4.0]},{"bufferView":182,"componentType":5126,"count":5,"type":"VEC3"},{"bufferView":183,"componentType":5126,"count":5,"type":"SCALAR","min":[0.0],"max":[4.0]},{"bufferView":184,"componentType":5126,"count":5,"type":"VEC4"},{"bufferView":185,"componentType":5126,"count":5,"type":"SCALAR","min":[0.0],"max":[4.0]},{"bufferView":186,"componentType":5126,"count":5,"type":"VEC4"},{"bufferView":187,"componentType":5126,"count":5,"type":"SCALAR","min":[0.0],"max":[4.0]},{"bufferView":188,"componentType":5126,"count":5,"type":"VEC4"},{"bufferView":189,"componentType":5126,"count":3,"type":"SCALAR","min":[0.0],"max":[4.0]},{"bufferView":190,"componentType":5126,"count":3,"type":"VEC4"},{"bufferView":191,"componentType":5126,"count":4,"type":"SCALAR","min":[0.0],"max":[0.23999999463558197]},{"bufferView":192,"componentType":5126,"count":4,"type":"VEC3"},{"bufferView":193,"componentType":5126,"count":4,"type":"SCALAR","min":[0.0],"max":[0.23999999463558197]},{"bufferView":194,"componentType":5126,"count":4,"type":"VEC3"},{"bufferView":195,"componentType":5126,"count":4,"type":"SCALAR","min":[0.0],"max":[1.600000023841858]},{"bufferView":196,"componentType":5126,"count":4,"type":"VEC4"},{"bufferView":197,"componentType":5126,"count":4,"type":"SCALAR","min":[0.0],"max":[1.600000023841858]},{"bufferView":198,"componentType":5126,"count":4,"type":"VEC4"},{"bufferView":199,"componentType":5126,"count":4,"type":"SCALAR","min":[0.0],"max":[1.600000023841858]},{"bufferView":200,"componentType":5126,"count":4,"type":"VEC4"},{"bufferView":201,"componentType":5126,"count":4,"type":"SCALAR","min":[0.0],"max":[1.600000023841858]},{"bufferView":202,"componentType":5126,"count":4,"type":"VEC4"},{"bufferView":203,"componentType":5126,"count":5,"type":"SCALAR","min":[0.0],"max":[1.2000000476837158]},{"bufferView":204,"componentType":5126,"count":5,"type":"VEC3"},{"bufferView":205,"componentType":5126,"count":4,"type":"SCALAR","min":[0.0],"max":[1.2000000476837158]},{"bufferView":206,"componentType":5126,"count":4,"type":"VEC4"},{"bufferView":207,"componentType":5126,"count":4,"type":"SCALAR","min":[0.0],"max":[1.2000000476837158]},{"bufferView":208,"componentType":5126,"count":4,"type":"VEC4"},{"bufferView":209,"componentType":5126,"count":7,"type":"SCALAR","min":[0.0],"max":[1.2000000476837158]},{"bufferView":210,"componentType":5126,"count":7,"type":"VEC4"},{"bufferView":211,"componentType":5126,"count":4,"type":"SCALAR","min":[0.0],"max":[1.2000000476837158]},{"bufferView":212,"componentType":5126,"count":4,"type":"VEC4"}],"skins":[{"name":"FinniRig","joints":[0,1,2,3,4,5,6,7,8,9,10,11,12,13,14],"skeleton":0,"inverseBindMatrices":180}],"animations":[{"name":"idle","samplers":[{"input":181,"output":182,"interpolation":"LINEAR"},{"input":183,"output":184,"interpolation":"LINEAR"},{"input":185,"output":186,"interpolation":"LINEAR"},{"input":187,"output":188,"interpolation":"LINEAR"},{"input":189,"output":190,"interpolation":"LINEAR"}],"channels":[{"sampler":0,"target":{"node":1,"path":"translation"}},{"sampler":1,"target":{"node":3,"path":"rotation"}},{"sampler":2,"target":{"node":12,"path":"rotation"}},{"sampler":3,"target":{"node":13,"path":"rotation"}},{"sampler":4,"target":{"node":5,"path":"rotation"}}],"extras":{"clipId":"CLIP-001","loop":true,"duration":4.0,"reducedMotionFallback":"rest-pose"}},{"name":"blink","samplers":[{"input":191,"output":192,"interpolation":"LINEAR"},{"input":193,"output":194,"interpolation":"LINEAR"}],"channels":[{"sampler":0,"target":{"node":36,"path":"scale"}},{"sampler":1,"target":{"node":37,"path":"scale"}}],"extras":{"clipId":"CLIP-002","loop":false,"duration":0.24,"reducedMotionFallback":"no-op"}},{"name":"interest","samplers":[{"input":195,"output":196,"interpolation":"LINEAR"},{"input":197,"output":198,"interpolation":"LINEAR"},{"input":199,"output":200,"interpolation":"LINEAR"},{"input":201,"output":202,"interpolation":"LINEAR"}],"channels":[{"sampler":0,"target":{"node":5,"path":"rotation"}},{"sampler":1,"target":{"node":6,"path":"rotation"}},{"sampler":2,"target":{"node":7,"path":"rotation"}},{"sampler":3,"target":{"node":14,"path":"rotation"}}],"extras":{"clipId":"CLIP-003","loop":false,"duration":1.6,"labelRu":"интерес / любопытство","reducedMotionFallback":"head-pose-6deg"}},{"name":"joy","samplers":[{"input":203,"output":204,"interpolation":"LINEAR"},{"input":205,"output":206,"interpolation":"LINEAR"},{"input":207,"output":208,"interpolation":"LINEAR"},{"input":209,"output":210,"interpolation":"LINEAR"},{"input":211,"output":212,"interpolation":"LINEAR"}],"channels":[{"sampler":0,"target":{"node":1,"path":"translation"}},{"sampler":1,"target":{"node":8,"path":"rotation"}},{"sampler":2,"target":{"node":9,"path":"rotation"}},{"sampler":3,"target":{"node":12,"path":"rotation"}},{"sampler":4,"target":{"node":5,"path":"rotation"}}],"extras":{"clipId":"CLIP-007","loop":false,"duration":1.2,"labelRu":"радость","reducedMotionFallback":"brief-smile-pose"}}],"cameras":[{"name":"DiagnosticCamera","type":"perspective","perspective":{"yfov":0.72,"znear":0.05,"zfar":50.0}}],"extensionsUsed":["KHR_lights_punctual"],"extensions":{"KHR_lights_punctual":{"lights":[{"name":"WarmKey","type":"point","color":[1.0,0.82,0.66],"intensity":210.0,"range":7.0},{"name":"SoftFill","type":"directional","color":[0.82,0.9,1.0],"intensity":1.4}]}},"extras":{"referenceId":"REF-001","referenceSha256":"84f8dfa0c2c6b86cb4fe25efdc051c3b764fc794a2bf1b08f1f240474f107211","revision":"R2","units":"m","characterApproxHeightM":1.58,"roomFragment":true,"chestSeparateObject":true},"images":[{"uri":"textures/fur_orange.png","name":"fur_orange"},{"uri":"textures/fur_cream.png","name":"fur_cream"},{"uri":"textures/wood.png","name":"wood"},{"uri":"textures/floor.png","name":"floor"},{"uri":"textures/wall.png","name":"wall"},{"uri":"textures/rug.png","name":"rug"}],"textures":[{"sampler":0,"source":0,"name":"fur_orange"},{"sampler":0,"source":1,"name":"fur_cream"},{"sampler":0,"source":2,"name":"wood"},{"sampler":0,"source":3,"name":"floor"},{"sampler":0,"source":4,"name":"wall"},{"sampler":0,"source":5,"name":"rug"}],"samplers":[{"magFilter":9729,"minFilter":9987,"wrapS":10497,"wrapT":10497}]}